# MagicaVoxel @ Ephtracy

# group
o 

# material
mtllib bep.mtl
usemtl palette

# normals
vn -1 0 0
vn 1 0 0
vn 0 0 1
vn 0 0 -1
vn 0 -1 0
vn 0 1 0

# texcoords
vt 0.197266 0.5
vt 0.240234 0.5
vt 0.271484 0.5
vt 0.287109 0.5
vt 0.314453 0.5

# verts
v -0.9 0 1.1
v -0.9 0 -0.1
v -0.9 0 -0.2
v -0.9 0 -0.3
v -0.9 0 -0.4
v -0.9 0.1 1.1
v -0.9 0.1 -0.1
v -0.9 0.1 -0.2
v -0.9 0.1 -0.3
v -0.9 0.1 -0.4
v -0.8 0 -0.4
v -0.8 0 -0.5
v -0.8 0 -0.6
v -0.8 0.1 -0.4
v -0.8 0.1 -0.5
v -0.8 0.1 -0.6
v -0.7 0 -0.6
v -0.7 0 -0.7
v -0.7 0.1 -0.6
v -0.7 0.1 -0.7
v -0.5 0 -0.7
v -0.5 0 -0.8
v -0.5 0 -0.9
v -0.5 0.1 -0.7
v -0.5 0.1 -0.8
v -0.5 0.1 -0.9
v -0.3 0 -0.9
v -0.3 0 -1
v -0.3 0.1 -0.9
v -0.3 0.1 -1
v 0.3 0 -0.9
v 0.3 0 -1
v 0.3 0.1 -0.9
v 0.3 0.1 -1
v 1 0 -0.8
v 1 0 -0.9
v 1 0.1 -0.8
v 1 0.1 -0.9
v 1.3 0 -0.5
v 1.3 0 -0.6
v 1.3 0 -0.7
v 1.3 0 -0.8
v 1.3 0.1 -0.5
v 1.3 0.1 -0.6
v 1.3 0.1 -0.7
v 1.3 0.1 -0.8
v 1.4 0 1.1
v 1.4 0 -0.5
v 1.4 0.1 1.1
v 1.4 0.1 -0.5
v -0.9 0 1.1
v -0.9 0.1 1.1
v -0.7 0 1.1
v -0.7 0.1 1.1
v 1.1 0 1.1
v 1.1 0.1 1.1
v 1.4 0 1.1
v 1.4 0.1 1.1
v -0.9 0 -0.4
v -0.9 0.1 -0.4
v -0.8 0 -0.4
v -0.8 0.1 -0.4
v 1.3 0 -0.5
v 1.3 0.1 -0.5
v 1.4 0 -0.5
v 1.4 0.1 -0.5
v -0.8 0 -0.6
v -0.8 0.1 -0.6
v -0.7 0 -0.6
v -0.7 0.1 -0.6
v -0.7 0 -0.7
v -0.7 0.1 -0.7
v -0.6 0 -0.7
v -0.6 0.1 -0.7
v -0.5 0 -0.7
v -0.5 0.1 -0.7
v 1 0 -0.8
v 1 0.1 -0.8
v 1.1 0 -0.8
v 1.1 0.1 -0.8
v 1.2 0 -0.8
v 1.2 0.1 -0.8
v 1.3 0 -0.8
v 1.3 0.1 -0.8
v -0.5 0 -0.9
v -0.5 0.1 -0.9
v -0.4 0 -0.9
v -0.4 0.1 -0.9
v -0.3 0 -0.9
v -0.3 0.1 -0.9
v 0.3 0 -0.9
v 0.3 0.1 -0.9
v 0.4 0 -0.9
v 0.4 0.1 -0.9
v 0.6 0 -0.9
v 0.6 0.1 -0.9
v 0.7 0 -0.9
v 0.7 0.1 -0.9
v 1 0 -0.9
v 1 0.1 -0.9
v -0.3 0 -1
v -0.3 0.1 -1
v -0.2 0 -1
v -0.2 0.1 -1
v -0.1 0 -1
v -0.1 0.1 -1
v 0 0 -1
v 0 0.1 -1
v 0.1 0 -1
v 0.1 0.1 -1
v 0.2 0 -1
v 0.2 0.1 -1
v 0.3 0 -1
v 0.3 0.1 -1
v -0.9 0 1.1
v -0.7 0 1.1
v 1.1 0 1.1
v 1.4 0 1.1
v -0.4 0 1
v -0.3 0 1
v -0.4 0 0.9
v -0.3 0 0.9
v 0.7 0 0.9
v 0.8 0 0.9
v 0.5 0 0.8
v 0.6 0 0.8
v 0.7 0 0.8
v 0.8 0 0.8
v 0 0 0.7
v 0.1 0 0.7
v 0.5 0 0.7
v 0.6 0 0.7
v 0.7 0 0.7
v -0.7 0 0.6
v -0.6 0 0.6
v 0 0 0.6
v 0.1 0 0.6
v 0.5 0 0.6
v 0.6 0 0.6
v -0.7 0 0.5
v -0.6 0 0.5
v -0.4 0 0.5
v -0.3 0 0.5
v 0.6 0 0.5
v 0.7 0 0.5
v 0.9 0 0.5
v 1 0 0.5
v -0.4 0 0.4
v -0.3 0 0.4
v 0.7 0 0.4
v 0.8 0 0.4
v 0.9 0 0.4
v 1 0 0.4
v -0.4 0 0.2
v -0.3 0 0.2
v 0.2 0 0.2
v 0.3 0 0.2
v 0.5 0 0.2
v 0.6 0 0.2
v 0.7 0 0.2
v 0.8 0 0.2
v -0.2 0 0.1
v -0.1 0 0.1
v 0.2 0 0.1
v 0.3 0 0.1
v 0.5 0 0.1
v 0.6 0 0.1
v -0.2 0 0
v -0.1 0 0
v 0.7 0 0
v 0.8 0 0
v -0.9 0 -0.1
v -0.8 0 -0.1
v 0.4 0 -0.1
v 0.6 0 -0.1
v -0.9 0 -0.2
v -0.8 0 -0.2
v 0.5 0 -0.2
v 0.6 0 -0.2
v 0.7 0 -0.2
v 0.8 0 -0.2
v -0.9 0 -0.3
v -0.8 0 -0.3
v -0.7 0 -0.3
v -0.5 0 -0.3
v -0.2 0 -0.3
v -0.1 0 -0.3
v 0.4 0 -0.3
v 0.5 0 -0.3
v 0.6 0 -0.3
v -0.9 0 -0.4
v -0.8 0 -0.4
v -0.7 0 -0.4
v -0.2 0 -0.4
v -0.1 0 -0.4
v 0.5 0 -0.4
v 0.6 0 -0.4
v -0.8 0 -0.5
v -0.7 0 -0.5
v -0.6 0 -0.5
v -0.5 0 -0.5
v -0.2 0 -0.5
v 1 0 -0.5
v 1.1 0 -0.5
v 1.2 0 -0.5
v 1.3 0 -0.5
v 1.4 0 -0.5
v -0.8 0 -0.6
v -0.7 0 -0.6
v -0.6 0 -0.6
v -0.5 0 -0.6
v 1.1 0 -0.6
v 1.2 0 -0.6
v 1.3 0 -0.6
v -0.7 0 -0.7
v -0.6 0 -0.7
v -0.5 0 -0.7
v -0.4 0 -0.7
v -0.2 0 -0.7
v 1 0 -0.7
v 1.1 0 -0.7
v 1.2 0 -0.7
v 1.3 0 -0.7
v -0.5 0 -0.8
v -0.4 0 -0.8
v -0.3 0 -0.8
v -0.2 0 -0.8
v -0.1 0 -0.8
v 0 0 -0.8
v 0.1 0 -0.8
v 0.3 0 -0.8
v 0.4 0 -0.8
v 0.6 0 -0.8
v 0.7 0 -0.8
v 1 0 -0.8
v 1.1 0 -0.8
v 1.2 0 -0.8
v 1.3 0 -0.8
v -0.5 0 -0.9
v -0.4 0 -0.9
v -0.3 0 -0.9
v -0.2 0 -0.9
v -0.1 0 -0.9
v 0 0 -0.9
v 0.1 0 -0.9
v 0.2 0 -0.9
v 0.3 0 -0.9
v 0.4 0 -0.9
v 0.6 0 -0.9
v 0.7 0 -0.9
v 1 0 -0.9
v -0.3 0 -1
v -0.2 0 -1
v -0.1 0 -1
v 0 0 -1
v 0.1 0 -1
v 0.2 0 -1
v 0.3 0 -1
v -0.9 0.1 1.1
v -0.7 0.1 1.1
v 1.1 0.1 1.1
v 1.4 0.1 1.1
v -0.4 0.1 1
v -0.3 0.1 1
v -0.4 0.1 0.9
v -0.3 0.1 0.9
v 0.7 0.1 0.9
v 0.8 0.1 0.9
v 0.5 0.1 0.8
v 0.6 0.1 0.8
v 0.7 0.1 0.8
v 0.8 0.1 0.8
v 0 0.1 0.7
v 0.1 0.1 0.7
v 0.5 0.1 0.7
v 0.6 0.1 0.7
v 0.7 0.1 0.7
v -0.7 0.1 0.6
v -0.6 0.1 0.6
v 0 0.1 0.6
v 0.1 0.1 0.6
v 0.5 0.1 0.6
v 0.6 0.1 0.6
v -0.7 0.1 0.5
v -0.6 0.1 0.5
v -0.4 0.1 0.5
v -0.3 0.1 0.5
v 0.6 0.1 0.5
v 0.7 0.1 0.5
v 0.9 0.1 0.5
v 1 0.1 0.5
v -0.4 0.1 0.4
v -0.3 0.1 0.4
v 0.7 0.1 0.4
v 0.8 0.1 0.4
v 0.9 0.1 0.4
v 1 0.1 0.4
v -0.4 0.1 0.2
v -0.3 0.1 0.2
v 0.2 0.1 0.2
v 0.3 0.1 0.2
v 0.5 0.1 0.2
v 0.6 0.1 0.2
v 0.7 0.1 0.2
v 0.8 0.1 0.2
v -0.2 0.1 0.1
v -0.1 0.1 0.1
v 0.2 0.1 0.1
v 0.3 0.1 0.1
v 0.5 0.1 0.1
v 0.6 0.1 0.1
v -0.2 0.1 0
v -0.1 0.1 0
v 0.7 0.1 0
v 0.8 0.1 0
v -0.9 0.1 -0.1
v -0.8 0.1 -0.1
v 0.4 0.1 -0.1
v 0.6 0.1 -0.1
v -0.9 0.1 -0.2
v -0.8 0.1 -0.2
v 0.5 0.1 -0.2
v 0.6 0.1 -0.2
v 0.7 0.1 -0.2
v 0.8 0.1 -0.2
v -0.9 0.1 -0.3
v -0.8 0.1 -0.3
v -0.7 0.1 -0.3
v -0.5 0.1 -0.3
v -0.2 0.1 -0.3
v -0.1 0.1 -0.3
v 0.4 0.1 -0.3
v 0.5 0.1 -0.3
v 0.6 0.1 -0.3
v -0.9 0.1 -0.4
v -0.8 0.1 -0.4
v -0.7 0.1 -0.4
v -0.2 0.1 -0.4
v -0.1 0.1 -0.4
v 0.5 0.1 -0.4
v 0.6 0.1 -0.4
v -0.8 0.1 -0.5
v -0.7 0.1 -0.5
v -0.6 0.1 -0.5
v -0.5 0.1 -0.5
v -0.2 0.1 -0.5
v 1 0.1 -0.5
v 1.1 0.1 -0.5
v 1.2 0.1 -0.5
v 1.3 0.1 -0.5
v 1.4 0.1 -0.5
v -0.8 0.1 -0.6
v -0.7 0.1 -0.6
v -0.6 0.1 -0.6
v -0.5 0.1 -0.6
v 1.1 0.1 -0.6
v 1.2 0.1 -0.6
v 1.3 0.1 -0.6
v -0.7 0.1 -0.7
v -0.6 0.1 -0.7
v -0.5 0.1 -0.7
v -0.4 0.1 -0.7
v -0.2 0.1 -0.7
v 1 0.1 -0.7
v 1.1 0.1 -0.7
v 1.2 0.1 -0.7
v 1.3 0.1 -0.7
v -0.5 0.1 -0.8
v -0.4 0.1 -0.8
v -0.3 0.1 -0.8
v -0.2 0.1 -0.8
v -0.1 0.1 -0.8
v 0 0.1 -0.8
v 0.1 0.1 -0.8
v 0.3 0.1 -0.8
v 0.4 0.1 -0.8
v 0.6 0.1 -0.8
v 0.7 0.1 -0.8
v 1 0.1 -0.8
v 1.1 0.1 -0.8
v 1.2 0.1 -0.8
v 1.3 0.1 -0.8
v -0.5 0.1 -0.9
v -0.4 0.1 -0.9
v -0.3 0.1 -0.9
v -0.2 0.1 -0.9
v -0.1 0.1 -0.9
v 0 0.1 -0.9
v 0.1 0.1 -0.9
v 0.2 0.1 -0.9
v 0.3 0.1 -0.9
v 0.4 0.1 -0.9
v 0.6 0.1 -0.9
v 0.7 0.1 -0.9
v 1 0.1 -0.9
v -0.3 0.1 -1
v -0.2 0.1 -1
v -0.1 0.1 -1
v 0 0.1 -1
v 0.1 0.1 -1
v 0.2 0.1 -1
v 0.3 0.1 -1

# faces
f 6/3/1 2/3/1 1/3/1
f 7/1/1 3/1/1 2/1/1
f 7/3/1 2/3/1 6/3/1
f 8/3/1 4/3/1 3/3/1
f 8/1/1 3/1/1 7/1/1
f 9/1/1 5/1/1 4/1/1
f 9/3/1 4/3/1 8/3/1
f 10/1/1 5/1/1 9/1/1
f 14/1/1 12/1/1 11/1/1
f 15/3/1 13/3/1 12/3/1
f 15/1/1 12/1/1 14/1/1
f 16/3/1 13/3/1 15/3/1
f 19/3/1 18/3/1 17/3/1
f 20/3/1 18/3/1 19/3/1
f 24/1/1 22/1/1 21/1/1
f 25/3/1 23/3/1 22/3/1
f 25/1/1 22/1/1 24/1/1
f 26/3/1 23/3/1 25/3/1
f 29/1/1 28/1/1 27/1/1
f 30/1/1 28/1/1 29/1/1
f 31/3/2 32/3/2 33/3/2
f 33/3/2 32/3/2 34/3/2
f 35/3/2 36/3/2 37/3/2
f 37/3/2 36/3/2 38/3/2
f 39/1/2 40/1/2 43/1/2
f 40/3/2 41/3/2 44/3/2
f 43/1/2 40/1/2 44/1/2
f 41/1/2 42/1/2 45/1/2
f 44/3/2 41/3/2 45/3/2
f 45/1/2 42/1/2 46/1/2
f 47/3/2 48/3/2 49/3/2
f 49/3/2 48/3/2 50/3/2
f 53/3/3 52/3/3 51/3/3
f 54/3/3 52/3/3 53/3/3
f 55/5/3 54/5/3 53/5/3
f 56/5/3 54/5/3 55/5/3
f 57/3/3 56/3/3 55/3/3
f 58/3/3 56/3/3 57/3/3
f 59/1/4 60/1/4 61/1/4
f 61/1/4 60/1/4 62/1/4
f 63/3/4 64/3/4 65/3/4
f 65/3/4 64/3/4 66/3/4
f 67/3/4 68/3/4 69/3/4
f 69/3/4 68/3/4 70/3/4
f 71/3/4 72/3/4 73/3/4
f 73/3/4 72/3/4 74/3/4
f 73/1/4 74/1/4 75/1/4
f 75/1/4 74/1/4 76/1/4
f 77/1/4 78/1/4 79/1/4
f 79/1/4 78/1/4 80/1/4
f 79/3/4 80/3/4 81/3/4
f 81/3/4 80/3/4 82/3/4
f 81/1/4 82/1/4 83/1/4
f 83/1/4 82/1/4 84/1/4
f 85/3/4 86/3/4 87/3/4
f 87/3/4 86/3/4 88/3/4
f 87/1/4 88/1/4 89/1/4
f 89/1/4 88/1/4 90/1/4
f 91/1/4 92/1/4 93/1/4
f 93/1/4 92/1/4 94/1/4
f 93/3/4 94/3/4 95/3/4
f 95/3/4 94/3/4 96/3/4
f 95/1/4 96/1/4 97/1/4
f 97/1/4 96/1/4 98/1/4
f 97/3/4 98/3/4 99/3/4
f 99/3/4 98/3/4 100/3/4
f 101/1/4 102/1/4 103/1/4
f 103/1/4 102/1/4 104/1/4
f 103/3/4 104/3/4 105/3/4
f 105/3/4 104/3/4 106/3/4
f 105/1/4 106/1/4 107/1/4
f 107/1/4 106/1/4 108/1/4
f 107/3/4 108/3/4 109/3/4
f 109/3/4 108/3/4 110/3/4
f 109/1/4 110/1/4 111/1/4
f 111/1/4 110/1/4 112/1/4
f 111/3/4 112/3/4 113/3/4
f 113/3/4 112/3/4 114/3/4
f 119/5/5 117/5/5 116/5/5
f 120/5/5 117/5/5 119/5/5
f 121/5/5 119/5/5 116/5/5
f 121/4/5 120/4/5 119/4/5
f 122/5/5 117/5/5 120/5/5
f 122/4/5 120/4/5 121/4/5
f 123/5/5 117/5/5 122/5/5
f 124/5/5 117/5/5 123/5/5
f 125/5/5 122/5/5 121/5/5
f 125/5/5 123/5/5 122/5/5
f 126/5/5 123/5/5 125/5/5
f 127/4/5 124/4/5 123/4/5
f 127/5/5 123/5/5 126/5/5
f 128/5/5 117/5/5 124/5/5
f 128/4/5 124/4/5 127/4/5
f 129/5/5 125/5/5 121/5/5
f 130/5/5 125/5/5 129/5/5
f 131/2/5 126/2/5 125/2/5
f 131/5/5 125/5/5 130/5/5
f 132/5/5 127/5/5 126/5/5
f 132/2/5 126/2/5 131/2/5
f 132/5/5 128/5/5 127/5/5
f 133/5/5 128/5/5 132/5/5
f 134/3/5 116/3/5 115/3/5
f 134/5/5 121/5/5 116/5/5
f 134/5/5 129/5/5 121/5/5
f 135/5/5 129/5/5 134/5/5
f 136/4/5 130/4/5 129/4/5
f 136/5/5 129/5/5 135/5/5
f 137/5/5 131/5/5 130/5/5
f 137/4/5 130/4/5 136/4/5
f 138/4/5 132/4/5 131/4/5
f 138/5/5 131/5/5 137/5/5
f 139/2/5 133/2/5 132/2/5
f 139/4/5 132/4/5 138/4/5
f 140/4/5 135/4/5 134/4/5
f 140/3/5 134/3/5 115/3/5
f 141/5/5 138/5/5 137/5/5
f 141/4/5 135/4/5 140/4/5
f 141/5/5 136/5/5 135/5/5
f 141/5/5 139/5/5 138/5/5
f 141/5/5 137/5/5 136/5/5
f 142/5/5 139/5/5 141/5/5
f 143/5/5 139/5/5 142/5/5
f 144/2/5 133/2/5 139/2/5
f 144/5/5 139/5/5 143/5/5
f 145/5/5 128/5/5 133/5/5
f 145/2/5 133/2/5 144/2/5
f 146/5/5 117/5/5 128/5/5
f 146/5/5 128/5/5 145/5/5
f 147/5/5 117/5/5 146/5/5
f 148/4/5 143/4/5 142/4/5
f 148/5/5 141/5/5 140/5/5
f 148/5/5 142/5/5 141/5/5
f 149/5/5 144/5/5 143/5/5
f 149/4/5 143/4/5 148/4/5
f 149/5/5 145/5/5 144/5/5
f 149/5/5 146/5/5 145/5/5
f 150/5/5 146/5/5 149/5/5
f 151/5/5 146/5/5 150/5/5
f 152/4/5 147/4/5 146/4/5
f 152/5/5 146/5/5 151/5/5
f 153/5/5 117/5/5 147/5/5
f 153/4/5 147/4/5 152/4/5
f 154/5/5 148/5/5 140/5/5
f 154/2/5 149/2/5 148/2/5
f 155/5/5 150/5/5 149/5/5
f 155/2/5 149/2/5 154/2/5
f 156/5/5 150/5/5 155/5/5
f 157/5/5 150/5/5 156/5/5
f 158/5/5 150/5/5 157/5/5
f 159/5/5 150/5/5 158/5/5
f 160/4/5 151/4/5 150/4/5
f 160/5/5 150/5/5 159/5/5
f 161/5/5 152/5/5 151/5/5
f 161/4/5 151/4/5 160/4/5
f 161/5/5 153/5/5 152/5/5
f 162/5/5 155/5/5 154/5/5
f 162/5/5 156/5/5 155/5/5
f 163/5/5 156/5/5 162/5/5
f 164/4/5 157/4/5 156/4/5
f 164/5/5 156/5/5 163/5/5
f 165/5/5 158/5/5 157/5/5
f 165/4/5 157/4/5 164/4/5
f 166/4/5 159/4/5 158/4/5
f 166/5/5 158/5/5 165/5/5
f 167/5/5 160/5/5 159/5/5
f 167/4/5 159/4/5 166/4/5
f 167/5/5 161/5/5 160/5/5
f 168/5/5 162/5/5 154/5/5
f 168/4/5 163/4/5 162/4/5
f 169/5/5 165/5/5 164/5/5
f 169/4/5 163/4/5 168/4/5
f 169/5/5 166/5/5 165/5/5
f 169/5/5 167/5/5 166/5/5
f 169/5/5 164/5/5 163/5/5
f 170/5/5 161/5/5 167/5/5
f 170/5/5 167/5/5 169/5/5
f 171/5/5 153/5/5 161/5/5
f 171/5/5 161/5/5 170/5/5
f 172/3/5 140/3/5 115/3/5
f 173/3/5 140/3/5 172/3/5
f 174/5/5 169/5/5 168/5/5
f 174/5/5 170/5/5 169/5/5
f 175/5/5 170/5/5 174/5/5
f 176/1/5 173/1/5 172/1/5
f 177/3/5 140/3/5 173/3/5
f 177/1/5 173/1/5 176/1/5
f 178/2/5 175/2/5 174/2/5
f 179/5/5 170/5/5 175/5/5
f 179/2/5 175/2/5 178/2/5
f 180/4/5 171/4/5 170/4/5
f 180/5/5 170/5/5 179/5/5
f 181/5/5 153/5/5 171/5/5
f 181/4/5 171/4/5 180/4/5
f 182/3/5 177/3/5 176/3/5
f 183/3/5 140/3/5 177/3/5
f 183/3/5 177/3/5 182/3/5
f 184/5/5 168/5/5 154/5/5
f 184/3/5 140/3/5 183/3/5
f 184/5/5 154/5/5 140/5/5
f 184/5/5 174/5/5 168/5/5
f 185/5/5 174/5/5 184/5/5
f 186/5/5 174/5/5 185/5/5
f 187/5/5 174/5/5 186/5/5
f 188/2/5 178/2/5 174/2/5
f 188/5/5 174/5/5 187/5/5
f 189/5/5 180/5/5 179/5/5
f 189/2/5 178/2/5 188/2/5
f 189/5/5 181/5/5 180/5/5
f 189/5/5 179/5/5 178/5/5
f 190/5/5 181/5/5 189/5/5
f 191/1/5 183/1/5 182/1/5
f 192/3/5 185/3/5 184/3/5
f 192/1/5 183/1/5 191/1/5
f 192/3/5 184/3/5 183/3/5
f 193/3/5 185/3/5 192/3/5
f 194/4/5 187/4/5 186/4/5
f 194/5/5 186/5/5 185/5/5
f 195/5/5 188/5/5 187/5/5
f 195/4/5 187/4/5 194/4/5
f 195/5/5 189/5/5 188/5/5
f 196/4/5 190/4/5 189/4/5
f 196/5/5 189/5/5 195/5/5
f 197/5/5 181/5/5 190/5/5
f 197/4/5 190/4/5 196/4/5
f 198/1/5 193/1/5 192/1/5
f 199/3/5 185/3/5 193/3/5
f 199/1/5 193/1/5 198/1/5
f 200/3/5 185/3/5 199/3/5
f 201/5/5 194/5/5 185/5/5
f 201/3/5 185/3/5 200/3/5
f 201/5/5 196/5/5 195/5/5
f 201/5/5 195/5/5 194/5/5
f 201/5/5 197/5/5 196/5/5
f 202/5/5 197/5/5 201/5/5
f 203/5/5 117/5/5 153/5/5
f 203/5/5 197/5/5 202/5/5
f 203/5/5 181/5/5 197/5/5
f 203/5/5 153/5/5 181/5/5
f 204/3/5 118/3/5 117/3/5
f 204/5/5 117/5/5 203/5/5
f 205/3/5 118/3/5 204/3/5
f 206/3/5 118/3/5 205/3/5
f 207/3/5 118/3/5 206/3/5
f 208/3/5 199/3/5 198/3/5
f 209/1/5 200/1/5 199/1/5
f 209/3/5 199/3/5 208/3/5
f 210/3/5 202/3/5 201/3/5
f 210/1/5 200/1/5 209/1/5
f 210/3/5 201/3/5 200/3/5
f 211/3/5 202/3/5 210/3/5
f 212/3/5 204/3/5 203/3/5
f 212/3/5 205/3/5 204/3/5
f 213/1/5 206/1/5 205/1/5
f 213/3/5 205/3/5 212/3/5
f 214/1/5 206/1/5 213/1/5
f 215/3/5 210/3/5 209/3/5
f 216/1/5 211/1/5 210/1/5
f 216/3/5 210/3/5 215/3/5
f 217/3/5 202/3/5 211/3/5
f 217/1/5 211/1/5 216/1/5
f 218/3/5 202/3/5 217/3/5
f 219/5/5 203/5/5 202/5/5
f 219/3/5 202/3/5 218/3/5
f 220/3/5 212/3/5 203/3/5
f 220/5/5 203/5/5 219/5/5
f 221/1/5 213/1/5 212/1/5
f 221/3/5 212/3/5 220/3/5
f 222/3/5 214/3/5 213/3/5
f 222/1/5 213/1/5 221/1/5
f 223/3/5 214/3/5 222/3/5
f 224/1/5 218/1/5 217/1/5
f 225/3/5 219/3/5 218/3/5
f 225/1/5 218/1/5 224/1/5
f 225/3/5 220/3/5 219/3/5
f 226/3/5 220/3/5 225/3/5
f 227/3/5 220/3/5 226/3/5
f 228/3/5 220/3/5 227/3/5
f 229/3/5 220/3/5 228/3/5
f 230/3/5 220/3/5 229/3/5
f 231/3/5 220/3/5 230/3/5
f 232/3/5 220/3/5 231/3/5
f 233/3/5 220/3/5 232/3/5
f 234/3/5 220/3/5 233/3/5
f 235/1/5 221/1/5 220/1/5
f 235/3/5 220/3/5 234/3/5
f 236/3/5 222/3/5 221/3/5
f 236/1/5 221/1/5 235/1/5
f 237/1/5 223/1/5 222/1/5
f 237/3/5 222/3/5 236/3/5
f 238/1/5 223/1/5 237/1/5
f 239/3/5 225/3/5 224/3/5
f 240/1/5 226/1/5 225/1/5
f 240/3/5 225/3/5 239/3/5
f 241/3/5 227/3/5 226/3/5
f 241/1/5 226/1/5 240/1/5
f 242/1/5 228/1/5 227/1/5
f 242/3/5 227/3/5 241/3/5
f 243/3/5 229/3/5 228/3/5
f 243/1/5 228/1/5 242/1/5
f 244/1/5 230/1/5 229/1/5
f 244/3/5 229/3/5 243/3/5
f 245/3/5 231/3/5 230/3/5
f 245/1/5 230/1/5 244/1/5
f 246/3/5 231/3/5 245/3/5
f 247/1/5 232/1/5 231/1/5
f 247/3/5 231/3/5 246/3/5
f 248/3/5 233/3/5 232/3/5
f 248/1/5 232/1/5 247/1/5
f 249/1/5 234/1/5 233/1/5
f 249/3/5 233/3/5 248/3/5
f 250/3/5 235/3/5 234/3/5
f 250/1/5 234/1/5 249/1/5
f 251/3/5 235/3/5 250/3/5
f 252/1/5 242/1/5 241/1/5
f 253/3/5 243/3/5 242/3/5
f 253/1/5 242/1/5 252/1/5
f 254/1/5 244/1/5 243/1/5
f 254/3/5 243/3/5 253/3/5
f 255/3/5 245/3/5 244/3/5
f 255/1/5 244/1/5 254/1/5
f 256/1/5 246/1/5 245/1/5
f 256/3/5 245/3/5 255/3/5
f 257/3/5 247/3/5 246/3/5
f 257/1/5 246/1/5 256/1/5
f 258/3/5 247/3/5 257/3/5
f 260/5/6 261/5/6 263/5/6
f 263/5/6 261/5/6 264/5/6
f 260/5/6 263/5/6 265/5/6
f 263/4/6 264/4/6 265/4/6
f 264/5/6 261/5/6 266/5/6
f 265/4/6 264/4/6 266/4/6
f 266/5/6 261/5/6 267/5/6
f 267/5/6 261/5/6 268/5/6
f 265/5/6 266/5/6 269/5/6
f 266/5/6 267/5/6 269/5/6
f 269/5/6 267/5/6 270/5/6
f 267/4/6 268/4/6 271/4/6
f 270/5/6 267/5/6 271/5/6
f 268/5/6 261/5/6 272/5/6
f 271/4/6 268/4/6 272/4/6
f 265/5/6 269/5/6 273/5/6
f 273/5/6 269/5/6 274/5/6
f 269/2/6 270/2/6 275/2/6
f 274/5/6 269/5/6 275/5/6
f 270/5/6 271/5/6 276/5/6
f 275/2/6 270/2/6 276/2/6
f 271/5/6 272/5/6 276/5/6
f 276/5/6 272/5/6 277/5/6
f 259/3/6 260/3/6 278/3/6
f 260/5/6 265/5/6 278/5/6
f 265/5/6 273/5/6 278/5/6
f 278/5/6 273/5/6 279/5/6
f 273/4/6 274/4/6 280/4/6
f 279/5/6 273/5/6 280/5/6
f 274/5/6 275/5/6 281/5/6
f 280/4/6 274/4/6 281/4/6
f 275/4/6 276/4/6 282/4/6
f 281/5/6 275/5/6 282/5/6
f 276/2/6 277/2/6 283/2/6
f 282/4/6 276/4/6 283/4/6
f 278/4/6 279/4/6 284/4/6
f 259/3/6 278/3/6 284/3/6
f 281/5/6 282/5/6 285/5/6
f 284/4/6 279/4/6 285/4/6
f 279/5/6 280/5/6 285/5/6
f 282/5/6 283/5/6 285/5/6
f 280/5/6 281/5/6 285/5/6
f 285/5/6 283/5/6 286/5/6
f 286/5/6 283/5/6 287/5/6
f 283/2/6 277/2/6 288/2/6
f 287/5/6 283/5/6 288/5/6
f 277/5/6 272/5/6 289/5/6
f 288/2/6 277/2/6 289/2/6
f 272/5/6 261/5/6 290/5/6
f 289/5/6 272/5/6 290/5/6
f 290/5/6 261/5/6 291/5/6
f 286/4/6 287/4/6 292/4/6
f 284/5/6 285/5/6 292/5/6
f 285/5/6 286/5/6 292/5/6
f 287/5/6 288/5/6 293/5/6
f 292/4/6 287/4/6 293/4/6
f 288/5/6 289/5/6 293/5/6
f 289/5/6 290/5/6 293/5/6
f 293/5/6 290/5/6 294/5/6
f 294/5/6 290/5/6 295/5/6
f 290/4/6 291/4/6 296/4/6
f 295/5/6 290/5/6 296/5/6
f 291/5/6 261/5/6 297/5/6
f 296/4/6 291/4/6 297/4/6
f 284/5/6 292/5/6 298/5/6
f 292/2/6 293/2/6 298/2/6
f 293/5/6 294/5/6 299/5/6
f 298/2/6 293/2/6 299/2/6
f 299/5/6 294/5/6 300/5/6
f 300/5/6 294/5/6 301/5/6
f 301/5/6 294/5/6 302/5/6
f 302/5/6 294/5/6 303/5/6
f 294/4/6 295/4/6 304/4/6
f 303/5/6 294/5/6 304/5/6
f 295/5/6 296/5/6 305/5/6
f 304/4/6 295/4/6 305/4/6
f 296/5/6 297/5/6 305/5/6
f 298/5/6 299/5/6 306/5/6
f 299/5/6 300/5/6 306/5/6
f 306/5/6 300/5/6 307/5/6
f 300/4/6 301/4/6 308/4/6
f 307/5/6 300/5/6 308/5/6
f 301/5/6 302/5/6 309/5/6
f 308/4/6 301/4/6 309/4/6
f 302/4/6 303/4/6 310/4/6
f 309/5/6 302/5/6 310/5/6
f 303/5/6 304/5/6 311/5/6
f 310/4/6 303/4/6 311/4/6
f 304/5/6 305/5/6 311/5/6
f 298/5/6 306/5/6 312/5/6
f 306/4/6 307/4/6 312/4/6
f 308/5/6 309/5/6 313/5/6
f 312/4/6 307/4/6 313/4/6
f 309/5/6 310/5/6 313/5/6
f 310/5/6 311/5/6 313/5/6
f 307/5/6 308/5/6 313/5/6
f 311/5/6 305/5/6 314/5/6
f 313/5/6 311/5/6 314/5/6
f 305/5/6 297/5/6 315/5/6
f 314/5/6 305/5/6 315/5/6
f 259/3/6 284/3/6 316/3/6
f 316/3/6 284/3/6 317/3/6
f 312/5/6 313/5/6 318/5/6
f 313/5/6 314/5/6 318/5/6
f 318/5/6 314/5/6 319/5/6
f 316/1/6 317/1/6 320/1/6
f 317/3/6 284/3/6 321/3/6
f 320/1/6 317/1/6 321/1/6
f 318/2/6 319/2/6 322/2/6
f 319/5/6 314/5/6 323/5/6
f 322/2/6 319/2/6 323/2/6
f 314/4/6 315/4/6 324/4/6
f 323/5/6 314/5/6 324/5/6
f 315/5/6 297/5/6 325/5/6
f 324/4/6 315/4/6 325/4/6
f 320/3/6 321/3/6 326/3/6
f 321/3/6 284/3/6 327/3/6
f 326/3/6 321/3/6 327/3/6
f 298/5/6 312/5/6 328/5/6
f 327/3/6 284/3/6 328/3/6
f 284/5/6 298/5/6 328/5/6
f 312/5/6 318/5/6 328/5/6
f 328/5/6 318/5/6 329/5/6
f 329/5/6 318/5/6 330/5/6
f 330/5/6 318/5/6 331/5/6
f 318/2/6 322/2/6 332/2/6
f 331/5/6 318/5/6 332/5/6
f 323/5/6 324/5/6 333/5/6
f 332/2/6 322/2/6 333/2/6
f 324/5/6 325/5/6 333/5/6
f 322/5/6 323/5/6 333/5/6
f 333/5/6 325/5/6 334/5/6
f 326/1/6 327/1/6 335/1/6
f 328/3/6 329/3/6 336/3/6
f 335/1/6 327/1/6 336/1/6
f 327/3/6 328/3/6 336/3/6
f 336/3/6 329/3/6 337/3/6
f 330/4/6 331/4/6 338/4/6
f 329/5/6 330/5/6 338/5/6
f 331/5/6 332/5/6 339/5/6
f 338/4/6 331/4/6 339/4/6
f 332/5/6 333/5/6 339/5/6
f 333/4/6 334/4/6 340/4/6
f 339/5/6 333/5/6 340/5/6
f 334/5/6 325/5/6 341/5/6
f 340/4/6 334/4/6 341/4/6
f 336/1/6 337/1/6 342/1/6
f 337/3/6 329/3/6 343/3/6
f 342/1/6 337/1/6 343/1/6
f 343/3/6 329/3/6 344/3/6
f 329/5/6 338/5/6 345/5/6
f 344/3/6 329/3/6 345/3/6
f 339/5/6 340/5/6 345/5/6
f 338/5/6 339/5/6 345/5/6
f 340/5/6 341/5/6 345/5/6
f 345/5/6 341/5/6 346/5/6
f 297/5/6 261/5/6 347/5/6
f 346/5/6 341/5/6 347/5/6
f 341/5/6 325/5/6 347/5/6
f 325/5/6 297/5/6 347/5/6
f 261/3/6 262/3/6 348/3/6
f 347/5/6 261/5/6 348/5/6
f 348/3/6 262/3/6 349/3/6
f 349/3/6 262/3/6 350/3/6
f 350/3/6 262/3/6 351/3/6
f 342/3/6 343/3/6 352/3/6
f 343/1/6 344/1/6 353/1/6
f 352/3/6 343/3/6 353/3/6
f 345/3/6 346/3/6 354/3/6
f 353/1/6 344/1/6 354/1/6
f 344/3/6 345/3/6 354/3/6
f 354/3/6 346/3/6 355/3/6
f 347/3/6 348/3/6 356/3/6
f 348/3/6 349/3/6 356/3/6
f 349/1/6 350/1/6 357/1/6
f 356/3/6 349/3/6 357/3/6
f 357/1/6 350/1/6 358/1/6
f 353/3/6 354/3/6 359/3/6
f 354/1/6 355/1/6 360/1/6
f 359/3/6 354/3/6 360/3/6
f 355/3/6 346/3/6 361/3/6
f 360/1/6 355/1/6 361/1/6
f 361/3/6 346/3/6 362/3/6
f 346/5/6 347/5/6 363/5/6
f 362/3/6 346/3/6 363/3/6
f 347/3/6 356/3/6 364/3/6
f 363/5/6 347/5/6 364/5/6
f 356/1/6 357/1/6 365/1/6
f 364/3/6 356/3/6 365/3/6
f 357/3/6 358/3/6 366/3/6
f 365/1/6 357/1/6 366/1/6
f 366/3/6 358/3/6 367/3/6
f 361/1/6 362/1/6 368/1/6
f 362/3/6 363/3/6 369/3/6
f 368/1/6 362/1/6 369/1/6
f 363/3/6 364/3/6 369/3/6
f 369/3/6 364/3/6 370/3/6
f 370/3/6 364/3/6 371/3/6
f 371/3/6 364/3/6 372/3/6
f 372/3/6 364/3/6 373/3/6
f 373/3/6 364/3/6 374/3/6
f 374/3/6 364/3/6 375/3/6
f 375/3/6 364/3/6 376/3/6
f 376/3/6 364/3/6 377/3/6
f 377/3/6 364/3/6 378/3/6
f 364/1/6 365/1/6 379/1/6
f 378/3/6 364/3/6 379/3/6
f 365/3/6 366/3/6 380/3/6
f 379/1/6 365/1/6 380/1/6
f 366/1/6 367/1/6 381/1/6
f 380/3/6 366/3/6 381/3/6
f 381/1/6 367/1/6 382/1/6
f 368/3/6 369/3/6 383/3/6
f 369/1/6 370/1/6 384/1/6
f 383/3/6 369/3/6 384/3/6
f 370/3/6 371/3/6 385/3/6
f 384/1/6 370/1/6 385/1/6
f 371/1/6 372/1/6 386/1/6
f 385/3/6 371/3/6 386/3/6
f 372/3/6 373/3/6 387/3/6
f 386/1/6 372/1/6 387/1/6
f 373/1/6 374/1/6 388/1/6
f 387/3/6 373/3/6 388/3/6
f 374/3/6 375/3/6 389/3/6
f 388/1/6 374/1/6 389/1/6
f 389/3/6 375/3/6 390/3/6
f 375/1/6 376/1/6 391/1/6
f 390/3/6 375/3/6 391/3/6
f 376/3/6 377/3/6 392/3/6
f 391/1/6 376/1/6 392/1/6
f 377/1/6 378/1/6 393/1/6
f 392/3/6 377/3/6 393/3/6
f 378/3/6 379/3/6 394/3/6
f 393/1/6 378/1/6 394/1/6
f 394/3/6 379/3/6 395/3/6
f 385/1/6 386/1/6 396/1/6
f 386/3/6 387/3/6 397/3/6
f 396/1/6 386/1/6 397/1/6
f 387/1/6 388/1/6 398/1/6
f 397/3/6 387/3/6 398/3/6
f 388/3/6 389/3/6 399/3/6
f 398/1/6 388/1/6 399/1/6
f 389/1/6 390/1/6 400/1/6
f 399/3/6 389/3/6 400/3/6
f 390/3/6 391/3/6 401/3/6
f 400/1/6 390/1/6 401/1/6
f 401/3/6 391/3/6 402/3/6
